<mxfile host="app.diagrams.net" modified="2020-10-07T18:58:02.673Z" agent="5.0 (Windows NT 10.0; Win64; x64) AppleWebKit/537.36 (KHTML, like Gecko) Chrome/85.0.4183.121 Safari/537.36" etag="-mY9R7PvzhsjSybzJuca" version="13.7.8" type="github">
  <diagram id="_ZvUenOvZR4Q5HsoNTDT" name="Page-1">
    <mxGraphModel dx="868" dy="401" grid="1" gridSize="10" guides="1" tooltips="1" connect="1" arrows="1" fold="1" page="1" pageScale="1" pageWidth="827" pageHeight="1169" math="0" shadow="0">
      <root>
        <mxCell id="0" />
        <mxCell id="1" parent="0" />
        <mxCell id="aT-8N7bvkEBbdMjWkv3w-8" style="edgeStyle=orthogonalEdgeStyle;rounded=0;orthogonalLoop=1;jettySize=auto;html=1;exitX=0;exitY=0;exitDx=0;exitDy=0;entryX=0.5;entryY=1;entryDx=0;entryDy=0;endArrow=none;endFill=0;" edge="1" parent="1" source="aT-8N7bvkEBbdMjWkv3w-1" target="aT-8N7bvkEBbdMjWkv3w-5">
          <mxGeometry relative="1" as="geometry" />
        </mxCell>
        <mxCell id="aT-8N7bvkEBbdMjWkv3w-9" style="edgeStyle=orthogonalEdgeStyle;rounded=0;orthogonalLoop=1;jettySize=auto;html=1;exitX=0.25;exitY=0;exitDx=0;exitDy=0;entryX=0.243;entryY=1.1;entryDx=0;entryDy=0;entryPerimeter=0;endArrow=none;endFill=0;" edge="1" parent="1" source="aT-8N7bvkEBbdMjWkv3w-1" target="aT-8N7bvkEBbdMjWkv3w-6">
          <mxGeometry relative="1" as="geometry" />
        </mxCell>
        <mxCell id="aT-8N7bvkEBbdMjWkv3w-14" style="edgeStyle=orthogonalEdgeStyle;rounded=0;orthogonalLoop=1;jettySize=auto;html=1;exitX=0.75;exitY=0;exitDx=0;exitDy=0;entryX=0;entryY=1;entryDx=0;entryDy=0;endArrow=none;endFill=0;" edge="1" parent="1" source="aT-8N7bvkEBbdMjWkv3w-1" target="aT-8N7bvkEBbdMjWkv3w-10">
          <mxGeometry relative="1" as="geometry" />
        </mxCell>
        <mxCell id="aT-8N7bvkEBbdMjWkv3w-15" style="edgeStyle=orthogonalEdgeStyle;rounded=0;orthogonalLoop=1;jettySize=auto;html=1;exitX=1;exitY=0;exitDx=0;exitDy=0;endArrow=none;endFill=0;" edge="1" parent="1" source="aT-8N7bvkEBbdMjWkv3w-1" target="aT-8N7bvkEBbdMjWkv3w-11">
          <mxGeometry relative="1" as="geometry">
            <Array as="points">
              <mxPoint x="180" y="95" />
            </Array>
          </mxGeometry>
        </mxCell>
        <mxCell id="aT-8N7bvkEBbdMjWkv3w-16" style="edgeStyle=orthogonalEdgeStyle;rounded=0;orthogonalLoop=1;jettySize=auto;html=1;exitX=1;exitY=0.5;exitDx=0;exitDy=0;entryX=0;entryY=0.5;entryDx=0;entryDy=0;endArrow=none;endFill=0;" edge="1" parent="1" source="aT-8N7bvkEBbdMjWkv3w-1" target="aT-8N7bvkEBbdMjWkv3w-12">
          <mxGeometry relative="1" as="geometry" />
        </mxCell>
        <mxCell id="aT-8N7bvkEBbdMjWkv3w-17" style="edgeStyle=orthogonalEdgeStyle;rounded=0;orthogonalLoop=1;jettySize=auto;html=1;exitX=1;exitY=1;exitDx=0;exitDy=0;entryX=0;entryY=0.5;entryDx=0;entryDy=0;endArrow=none;endFill=0;" edge="1" parent="1" source="aT-8N7bvkEBbdMjWkv3w-1" target="aT-8N7bvkEBbdMjWkv3w-13">
          <mxGeometry relative="1" as="geometry" />
        </mxCell>
        <mxCell id="aT-8N7bvkEBbdMjWkv3w-1" value="Aluno" style="rounded=0;whiteSpace=wrap;html=1;" vertex="1" parent="1">
          <mxGeometry x="60" y="100" width="120" height="60" as="geometry" />
        </mxCell>
        <mxCell id="aT-8N7bvkEBbdMjWkv3w-5" value="&lt;u&gt;cod_aluno&lt;/u&gt;" style="ellipse;whiteSpace=wrap;html=1;" vertex="1" parent="1">
          <mxGeometry x="20" y="20" width="70" height="30" as="geometry" />
        </mxCell>
        <mxCell id="aT-8N7bvkEBbdMjWkv3w-6" value="nome" style="ellipse;whiteSpace=wrap;html=1;" vertex="1" parent="1">
          <mxGeometry x="110" y="20" width="70" height="30" as="geometry" />
        </mxCell>
        <mxCell id="aT-8N7bvkEBbdMjWkv3w-10" value="telefone" style="ellipse;whiteSpace=wrap;html=1;" vertex="1" parent="1">
          <mxGeometry x="200" y="20" width="70" height="30" as="geometry" />
        </mxCell>
        <mxCell id="aT-8N7bvkEBbdMjWkv3w-11" value="dt_nasc" style="ellipse;whiteSpace=wrap;html=1;" vertex="1" parent="1">
          <mxGeometry x="210" y="70" width="70" height="30" as="geometry" />
        </mxCell>
        <mxCell id="aT-8N7bvkEBbdMjWkv3w-12" value="endereco" style="ellipse;whiteSpace=wrap;html=1;" vertex="1" parent="1">
          <mxGeometry x="210" y="115" width="70" height="30" as="geometry" />
        </mxCell>
        <mxCell id="aT-8N7bvkEBbdMjWkv3w-13" value="cidade" style="ellipse;whiteSpace=wrap;html=1;" vertex="1" parent="1">
          <mxGeometry x="210" y="160" width="70" height="30" as="geometry" />
        </mxCell>
        <mxCell id="aT-8N7bvkEBbdMjWkv3w-23" style="edgeStyle=orthogonalEdgeStyle;rounded=0;orthogonalLoop=1;jettySize=auto;html=1;exitX=1;exitY=0.5;exitDx=0;exitDy=0;entryX=0;entryY=0.5;entryDx=0;entryDy=0;endArrow=none;endFill=0;" edge="1" parent="1" source="aT-8N7bvkEBbdMjWkv3w-25" target="aT-8N7bvkEBbdMjWkv3w-29">
          <mxGeometry relative="1" as="geometry" />
        </mxCell>
        <mxCell id="aT-8N7bvkEBbdMjWkv3w-24" style="edgeStyle=orthogonalEdgeStyle;rounded=0;orthogonalLoop=1;jettySize=auto;html=1;exitX=1;exitY=1;exitDx=0;exitDy=0;entryX=0;entryY=0.5;entryDx=0;entryDy=0;endArrow=none;endFill=0;" edge="1" parent="1" source="aT-8N7bvkEBbdMjWkv3w-25" target="aT-8N7bvkEBbdMjWkv3w-30">
          <mxGeometry relative="1" as="geometry" />
        </mxCell>
        <mxCell id="aT-8N7bvkEBbdMjWkv3w-35" style="edgeStyle=orthogonalEdgeStyle;rounded=0;orthogonalLoop=1;jettySize=auto;html=1;exitX=0.5;exitY=1;exitDx=0;exitDy=0;entryX=0.033;entryY=0.867;entryDx=0;entryDy=0;entryPerimeter=0;endArrow=none;endFill=0;" edge="1" parent="1" source="aT-8N7bvkEBbdMjWkv3w-25" target="aT-8N7bvkEBbdMjWkv3w-34">
          <mxGeometry relative="1" as="geometry">
            <Array as="points">
              <mxPoint x="145" y="570" />
              <mxPoint x="238" y="570" />
            </Array>
          </mxGeometry>
        </mxCell>
        <mxCell id="aT-8N7bvkEBbdMjWkv3w-61" style="edgeStyle=orthogonalEdgeStyle;rounded=0;orthogonalLoop=1;jettySize=auto;html=1;exitX=1;exitY=0.25;exitDx=0;exitDy=0;entryX=0;entryY=0.5;entryDx=0;entryDy=0;endArrow=none;endFill=0;" edge="1" parent="1" source="aT-8N7bvkEBbdMjWkv3w-25" target="aT-8N7bvkEBbdMjWkv3w-28">
          <mxGeometry relative="1" as="geometry" />
        </mxCell>
        <mxCell id="aT-8N7bvkEBbdMjWkv3w-62" style="edgeStyle=orthogonalEdgeStyle;rounded=0;orthogonalLoop=1;jettySize=auto;html=1;exitX=1;exitY=0;exitDx=0;exitDy=0;entryX=0;entryY=1;entryDx=0;entryDy=0;endArrow=none;endFill=0;" edge="1" parent="1" source="aT-8N7bvkEBbdMjWkv3w-25" target="aT-8N7bvkEBbdMjWkv3w-27">
          <mxGeometry relative="1" as="geometry" />
        </mxCell>
        <mxCell id="aT-8N7bvkEBbdMjWkv3w-63" style="edgeStyle=orthogonalEdgeStyle;rounded=0;orthogonalLoop=1;jettySize=auto;html=1;exitX=0.75;exitY=0;exitDx=0;exitDy=0;entryX=0;entryY=1;entryDx=0;entryDy=0;endArrow=none;endFill=0;" edge="1" parent="1" source="aT-8N7bvkEBbdMjWkv3w-25" target="aT-8N7bvkEBbdMjWkv3w-26">
          <mxGeometry relative="1" as="geometry">
            <Array as="points">
              <mxPoint x="185" y="420" />
              <mxPoint x="255" y="420" />
            </Array>
          </mxGeometry>
        </mxCell>
        <mxCell id="aT-8N7bvkEBbdMjWkv3w-64" style="edgeStyle=orthogonalEdgeStyle;rounded=0;orthogonalLoop=1;jettySize=auto;html=1;exitX=0.5;exitY=0;exitDx=0;exitDy=0;entryX=0.367;entryY=1.075;entryDx=0;entryDy=0;entryPerimeter=0;endArrow=none;endFill=0;" edge="1" parent="1" source="aT-8N7bvkEBbdMjWkv3w-25" target="aT-8N7bvkEBbdMjWkv3w-33">
          <mxGeometry relative="1" as="geometry">
            <Array as="points">
              <mxPoint x="155" y="410" />
              <mxPoint x="178" y="410" />
            </Array>
          </mxGeometry>
        </mxCell>
        <mxCell id="aT-8N7bvkEBbdMjWkv3w-79" style="edgeStyle=orthogonalEdgeStyle;rounded=0;orthogonalLoop=1;jettySize=auto;html=1;exitX=0.25;exitY=0;exitDx=0;exitDy=0;entryX=0.063;entryY=0.625;entryDx=0;entryDy=0;entryPerimeter=0;endArrow=none;endFill=0;" edge="1" parent="1" source="aT-8N7bvkEBbdMjWkv3w-25" target="aT-8N7bvkEBbdMjWkv3w-70">
          <mxGeometry relative="1" as="geometry">
            <Array as="points">
              <mxPoint x="130" y="450" />
              <mxPoint x="130" y="280" />
              <mxPoint x="310" y="280" />
            </Array>
          </mxGeometry>
        </mxCell>
        <mxCell id="aT-8N7bvkEBbdMjWkv3w-25" value="Pagamento" style="rounded=0;whiteSpace=wrap;html=1;" vertex="1" parent="1">
          <mxGeometry x="95" y="450" width="120" height="60" as="geometry" />
        </mxCell>
        <mxCell id="aT-8N7bvkEBbdMjWkv3w-26" value="cod_pacote" style="ellipse;whiteSpace=wrap;html=1;" vertex="1" parent="1">
          <mxGeometry x="245" y="340" width="70" height="30" as="geometry" />
        </mxCell>
        <mxCell id="aT-8N7bvkEBbdMjWkv3w-27" value="cod-aluno" style="ellipse;whiteSpace=wrap;html=1;" vertex="1" parent="1">
          <mxGeometry x="260" y="380" width="70" height="30" as="geometry" />
        </mxCell>
        <mxCell id="aT-8N7bvkEBbdMjWkv3w-28" value="parcela" style="ellipse;whiteSpace=wrap;html=1;" vertex="1" parent="1">
          <mxGeometry x="260" y="430" width="70" height="30" as="geometry" />
        </mxCell>
        <mxCell id="aT-8N7bvkEBbdMjWkv3w-29" value="valor" style="ellipse;whiteSpace=wrap;html=1;" vertex="1" parent="1">
          <mxGeometry x="235" y="465" width="70" height="30" as="geometry" />
        </mxCell>
        <mxCell id="aT-8N7bvkEBbdMjWkv3w-30" value="dt_vencimento" style="ellipse;whiteSpace=wrap;html=1;" vertex="1" parent="1">
          <mxGeometry x="235" y="515" width="90" height="30" as="geometry" />
        </mxCell>
        <mxCell id="aT-8N7bvkEBbdMjWkv3w-33" value="&lt;u&gt;cod_pagamento&lt;/u&gt;" style="ellipse;whiteSpace=wrap;html=1;" vertex="1" parent="1">
          <mxGeometry x="145" y="340" width="90" height="40" as="geometry" />
        </mxCell>
        <mxCell id="aT-8N7bvkEBbdMjWkv3w-34" value="dt_pagamento" style="ellipse;whiteSpace=wrap;html=1;" vertex="1" parent="1">
          <mxGeometry x="235" y="555" width="90" height="30" as="geometry" />
        </mxCell>
        <mxCell id="aT-8N7bvkEBbdMjWkv3w-36" style="edgeStyle=orthogonalEdgeStyle;rounded=0;orthogonalLoop=1;jettySize=auto;html=1;exitX=0;exitY=0;exitDx=0;exitDy=0;entryX=0.5;entryY=1;entryDx=0;entryDy=0;endArrow=none;endFill=0;" edge="1" parent="1" source="aT-8N7bvkEBbdMjWkv3w-42">
          <mxGeometry relative="1" as="geometry">
            <mxPoint x="530" y="110" as="targetPoint" />
          </mxGeometry>
        </mxCell>
        <mxCell id="aT-8N7bvkEBbdMjWkv3w-37" style="edgeStyle=orthogonalEdgeStyle;rounded=0;orthogonalLoop=1;jettySize=auto;html=1;exitX=0.25;exitY=0;exitDx=0;exitDy=0;entryX=0.243;entryY=1.1;entryDx=0;entryDy=0;entryPerimeter=0;endArrow=none;endFill=0;" edge="1" parent="1" source="aT-8N7bvkEBbdMjWkv3w-42" target="aT-8N7bvkEBbdMjWkv3w-43">
          <mxGeometry relative="1" as="geometry" />
        </mxCell>
        <mxCell id="aT-8N7bvkEBbdMjWkv3w-38" style="edgeStyle=orthogonalEdgeStyle;rounded=0;orthogonalLoop=1;jettySize=auto;html=1;exitX=0.75;exitY=0;exitDx=0;exitDy=0;entryX=0;entryY=1;entryDx=0;entryDy=0;endArrow=none;endFill=0;" edge="1" parent="1" source="aT-8N7bvkEBbdMjWkv3w-42" target="aT-8N7bvkEBbdMjWkv3w-44">
          <mxGeometry relative="1" as="geometry" />
        </mxCell>
        <mxCell id="aT-8N7bvkEBbdMjWkv3w-39" style="edgeStyle=orthogonalEdgeStyle;rounded=0;orthogonalLoop=1;jettySize=auto;html=1;exitX=1;exitY=0;exitDx=0;exitDy=0;endArrow=none;endFill=0;" edge="1" parent="1" source="aT-8N7bvkEBbdMjWkv3w-42" target="aT-8N7bvkEBbdMjWkv3w-45">
          <mxGeometry relative="1" as="geometry">
            <Array as="points">
              <mxPoint x="655" y="155" />
            </Array>
          </mxGeometry>
        </mxCell>
        <mxCell id="aT-8N7bvkEBbdMjWkv3w-40" style="edgeStyle=orthogonalEdgeStyle;rounded=0;orthogonalLoop=1;jettySize=auto;html=1;exitX=1;exitY=0.5;exitDx=0;exitDy=0;entryX=0;entryY=0.5;entryDx=0;entryDy=0;endArrow=none;endFill=0;" edge="1" parent="1" source="aT-8N7bvkEBbdMjWkv3w-42" target="aT-8N7bvkEBbdMjWkv3w-46">
          <mxGeometry relative="1" as="geometry" />
        </mxCell>
        <mxCell id="aT-8N7bvkEBbdMjWkv3w-42" value="Pacote" style="rounded=0;whiteSpace=wrap;html=1;" vertex="1" parent="1">
          <mxGeometry x="535" y="160" width="120" height="60" as="geometry" />
        </mxCell>
        <mxCell id="aT-8N7bvkEBbdMjWkv3w-43" value="nome" style="ellipse;whiteSpace=wrap;html=1;" vertex="1" parent="1">
          <mxGeometry x="585" y="80" width="70" height="30" as="geometry" />
        </mxCell>
        <mxCell id="aT-8N7bvkEBbdMjWkv3w-44" value="cod_curso" style="ellipse;whiteSpace=wrap;html=1;" vertex="1" parent="1">
          <mxGeometry x="675" y="80" width="70" height="30" as="geometry" />
        </mxCell>
        <mxCell id="aT-8N7bvkEBbdMjWkv3w-45" value="num-aulas" style="ellipse;whiteSpace=wrap;html=1;" vertex="1" parent="1">
          <mxGeometry x="685" y="140" width="70" height="30" as="geometry" />
        </mxCell>
        <mxCell id="aT-8N7bvkEBbdMjWkv3w-46" value="valor" style="ellipse;whiteSpace=wrap;html=1;" vertex="1" parent="1">
          <mxGeometry x="685" y="200" width="70" height="30" as="geometry" />
        </mxCell>
        <mxCell id="aT-8N7bvkEBbdMjWkv3w-48" value="&lt;u&gt;cod_pacote&lt;/u&gt;" style="ellipse;whiteSpace=wrap;html=1;" vertex="1" parent="1">
          <mxGeometry x="490" y="80" width="70" height="30" as="geometry" />
        </mxCell>
        <mxCell id="aT-8N7bvkEBbdMjWkv3w-51" style="edgeStyle=orthogonalEdgeStyle;rounded=0;orthogonalLoop=1;jettySize=auto;html=1;exitX=0.75;exitY=0;exitDx=0;exitDy=0;entryX=0;entryY=1;entryDx=0;entryDy=0;endArrow=none;endFill=0;" edge="1" parent="1" source="aT-8N7bvkEBbdMjWkv3w-54" target="aT-8N7bvkEBbdMjWkv3w-56">
          <mxGeometry relative="1" as="geometry">
            <Array as="points">
              <mxPoint x="600" y="456" />
            </Array>
          </mxGeometry>
        </mxCell>
        <mxCell id="aT-8N7bvkEBbdMjWkv3w-52" style="edgeStyle=orthogonalEdgeStyle;rounded=0;orthogonalLoop=1;jettySize=auto;html=1;exitX=1;exitY=0;exitDx=0;exitDy=0;endArrow=none;endFill=0;" edge="1" parent="1" source="aT-8N7bvkEBbdMjWkv3w-54" target="aT-8N7bvkEBbdMjWkv3w-57">
          <mxGeometry relative="1" as="geometry">
            <Array as="points">
              <mxPoint x="630" y="505" />
            </Array>
          </mxGeometry>
        </mxCell>
        <mxCell id="aT-8N7bvkEBbdMjWkv3w-60" style="edgeStyle=orthogonalEdgeStyle;rounded=0;orthogonalLoop=1;jettySize=auto;html=1;exitX=0.75;exitY=0;exitDx=0;exitDy=0;entryX=0;entryY=1;entryDx=0;entryDy=0;endArrow=none;endFill=0;" edge="1" parent="1" source="aT-8N7bvkEBbdMjWkv3w-54" target="aT-8N7bvkEBbdMjWkv3w-55">
          <mxGeometry relative="1" as="geometry" />
        </mxCell>
        <mxCell id="aT-8N7bvkEBbdMjWkv3w-54" value="Curso" style="rounded=0;whiteSpace=wrap;html=1;" vertex="1" parent="1">
          <mxGeometry x="510" y="440" width="120" height="60" as="geometry" />
        </mxCell>
        <mxCell id="aT-8N7bvkEBbdMjWkv3w-55" value="nome" style="ellipse;whiteSpace=wrap;html=1;" vertex="1" parent="1">
          <mxGeometry x="640" y="375" width="70" height="30" as="geometry" />
        </mxCell>
        <mxCell id="aT-8N7bvkEBbdMjWkv3w-56" value="cod_curso" style="ellipse;whiteSpace=wrap;html=1;" vertex="1" parent="1">
          <mxGeometry x="665" y="430" width="70" height="30" as="geometry" />
        </mxCell>
        <mxCell id="aT-8N7bvkEBbdMjWkv3w-57" value="professor" style="ellipse;whiteSpace=wrap;html=1;" vertex="1" parent="1">
          <mxGeometry x="665" y="490" width="70" height="30" as="geometry" />
        </mxCell>
        <mxCell id="aT-8N7bvkEBbdMjWkv3w-66" style="edgeStyle=orthogonalEdgeStyle;rounded=0;orthogonalLoop=1;jettySize=auto;html=1;exitX=0.5;exitY=0;exitDx=0;exitDy=0;endArrow=none;endFill=0;" edge="1" parent="1" source="aT-8N7bvkEBbdMjWkv3w-65" target="aT-8N7bvkEBbdMjWkv3w-1">
          <mxGeometry relative="1" as="geometry" />
        </mxCell>
        <mxCell id="aT-8N7bvkEBbdMjWkv3w-67" style="edgeStyle=orthogonalEdgeStyle;rounded=0;orthogonalLoop=1;jettySize=auto;html=1;exitX=0.5;exitY=1;exitDx=0;exitDy=0;endArrow=none;endFill=0;entryX=0.117;entryY=0.017;entryDx=0;entryDy=0;entryPerimeter=0;" edge="1" parent="1" source="aT-8N7bvkEBbdMjWkv3w-65" target="aT-8N7bvkEBbdMjWkv3w-25">
          <mxGeometry relative="1" as="geometry">
            <mxPoint x="110" y="440" as="targetPoint" />
          </mxGeometry>
        </mxCell>
        <mxCell id="aT-8N7bvkEBbdMjWkv3w-65" value="Possui" style="rhombus;whiteSpace=wrap;html=1;" vertex="1" parent="1">
          <mxGeometry x="40" y="250" width="80" height="80" as="geometry" />
        </mxCell>
        <mxCell id="aT-8N7bvkEBbdMjWkv3w-68" value="1:1" style="text;html=1;strokeColor=none;fillColor=none;align=center;verticalAlign=middle;whiteSpace=wrap;rounded=0;" vertex="1" parent="1">
          <mxGeometry x="35" y="190" width="40" height="20" as="geometry" />
        </mxCell>
        <mxCell id="aT-8N7bvkEBbdMjWkv3w-69" value="1:N" style="text;html=1;strokeColor=none;fillColor=none;align=center;verticalAlign=middle;whiteSpace=wrap;rounded=0;" vertex="1" parent="1">
          <mxGeometry x="35" y="385" width="40" height="20" as="geometry" />
        </mxCell>
        <mxCell id="aT-8N7bvkEBbdMjWkv3w-72" style="edgeStyle=orthogonalEdgeStyle;rounded=0;orthogonalLoop=1;jettySize=auto;html=1;exitX=1;exitY=0.5;exitDx=0;exitDy=0;entryX=0;entryY=0.75;entryDx=0;entryDy=0;endArrow=none;endFill=0;" edge="1" parent="1" source="aT-8N7bvkEBbdMjWkv3w-70" target="aT-8N7bvkEBbdMjWkv3w-42">
          <mxGeometry relative="1" as="geometry" />
        </mxCell>
        <mxCell id="aT-8N7bvkEBbdMjWkv3w-70" value="Possui" style="rhombus;whiteSpace=wrap;html=1;" vertex="1" parent="1">
          <mxGeometry x="305" y="210" width="80" height="80" as="geometry" />
        </mxCell>
        <mxCell id="aT-8N7bvkEBbdMjWkv3w-74" value="1:N" style="text;html=1;strokeColor=none;fillColor=none;align=center;verticalAlign=middle;whiteSpace=wrap;rounded=0;" vertex="1" parent="1">
          <mxGeometry x="260" y="280" width="40" height="20" as="geometry" />
        </mxCell>
        <mxCell id="aT-8N7bvkEBbdMjWkv3w-75" value="1:N" style="text;html=1;strokeColor=none;fillColor=none;align=center;verticalAlign=middle;whiteSpace=wrap;rounded=0;" vertex="1" parent="1">
          <mxGeometry x="230" y="210" width="40" height="20" as="geometry" />
        </mxCell>
        <mxCell id="aT-8N7bvkEBbdMjWkv3w-80" style="edgeStyle=orthogonalEdgeStyle;rounded=0;orthogonalLoop=1;jettySize=auto;html=1;exitX=0.5;exitY=1;exitDx=0;exitDy=0;entryX=0.5;entryY=0;entryDx=0;entryDy=0;endArrow=none;endFill=0;" edge="1" parent="1" source="aT-8N7bvkEBbdMjWkv3w-76" target="aT-8N7bvkEBbdMjWkv3w-54">
          <mxGeometry relative="1" as="geometry" />
        </mxCell>
        <mxCell id="aT-8N7bvkEBbdMjWkv3w-81" style="edgeStyle=orthogonalEdgeStyle;rounded=0;orthogonalLoop=1;jettySize=auto;html=1;exitX=0.5;exitY=0;exitDx=0;exitDy=0;endArrow=none;endFill=0;" edge="1" parent="1" source="aT-8N7bvkEBbdMjWkv3w-76" target="aT-8N7bvkEBbdMjWkv3w-42">
          <mxGeometry relative="1" as="geometry" />
        </mxCell>
        <mxCell id="aT-8N7bvkEBbdMjWkv3w-76" value="Pertence" style="rhombus;whiteSpace=wrap;html=1;" vertex="1" parent="1">
          <mxGeometry x="530" y="290" width="80" height="80" as="geometry" />
        </mxCell>
        <mxCell id="aT-8N7bvkEBbdMjWkv3w-82" value="1:1" style="text;html=1;strokeColor=none;fillColor=none;align=center;verticalAlign=middle;whiteSpace=wrap;rounded=0;" vertex="1" parent="1">
          <mxGeometry x="470" y="170" width="40" height="20" as="geometry" />
        </mxCell>
        <mxCell id="aT-8N7bvkEBbdMjWkv3w-84" value="1:1" style="text;html=1;strokeColor=none;fillColor=none;align=center;verticalAlign=middle;whiteSpace=wrap;rounded=0;" vertex="1" parent="1">
          <mxGeometry x="520" y="390" width="40" height="20" as="geometry" />
        </mxCell>
        <mxCell id="aT-8N7bvkEBbdMjWkv3w-85" value="1:N" style="text;html=1;strokeColor=none;fillColor=none;align=center;verticalAlign=middle;whiteSpace=wrap;rounded=0;" vertex="1" parent="1">
          <mxGeometry x="596" y="240" width="40" height="20" as="geometry" />
        </mxCell>
      </root>
    </mxGraphModel>
  </diagram>
</mxfile>
